<svg width="219" height="227" viewBox="0 0 219 227" fill="none" xmlns="http://www.w3.org/2000/svg">
<path d="M151.813 177.019C128.495 177.019 106.943 168.186 90.3375 152.287C73.3787 135.681 63.8393 113.776 63.1327 90.1043C62.7794 66.7858 71.2588 44.174 88.2177 27.2151C104.47 10.2562 126.375 0.716812 150.047 0.0102015C173.719 -0.343104 195.977 8.48963 212.936 25.0952C221.416 32.868 220.002 42.4522 211.876 50.5784C203.75 59.0578 187.48 60.7045 179 52.5784C170.168 44.0989 163.119 42.4074 150.754 42.4074C138.388 42.4074 127.082 47.707 118.249 56.5398C110.123 65.3725 105.177 77.0318 105.53 89.3976C105.53 101.41 110.83 113.423 119.662 121.549C128.495 130.382 140.154 134.975 152.167 134.621C163.826 134.621 178.521 117.851 187 110.078C195.127 101.952 205.163 114.836 212.936 123.315C221.062 131.795 220.356 145.221 211.876 153.347C195.977 168.186 175.132 176.665 153.227 177.019H151.813Z" fill="url(#paint0_linear_401_39)"/>
<path d="M78.9491 227.078L0 140.61C26.3999 116.215 52.772 130.446 62.658 140.61L78.9491 155.23L110.696 118.889C131.415 88.8127 161.936 86.3065 174.607 88.8129C209.027 95.8306 217.108 121.736 218.5 136.078C216.165 117.402 202.51 118.328 194.29 118.885L194.24 118.889C181.875 116.215 162.354 132.256 154.139 140.61L78.9491 227.078Z" fill="#8958EA"/>
<defs>
<linearGradient id="paint0_linear_401_39" x1="107.5" y1="0.0783679" x2="186" y2="151.578" gradientUnits="userSpaceOnUse">
<stop stop-color="#00B4D8" stop-opacity="0.49"/>
<stop offset="0.401042" stop-color="#6752E1" stop-opacity="0.719219"/>
<stop offset="1" stop-color="#7941E3" stop-opacity="0.76"/>
</linearGradient>
</defs>
</svg>
